# xmcd
#
# Track frame offsets:
#	150
#	14607
#	30308
#	47538
#	63068
#	76101
#	93860
#	109595
#	124258
#	141059
#	157912
#	169725
#	186683
#	207737
#
# Disc length: 3007 seconds
#
# Revision: 1
# Processed by: cddbd v1.5.2PL0 Copyright (c) Steve Scherf et al.
# Submitted via: audiograbber 1.83.01
#
DISCID=b20bbd0e
DTITLE=John Mellencamp - life, death, love and freedom
DYEAR=2008
DGENRE=Folk-Rock
TTITLE0=Longest Days
TTITLE1=My Sweet Love
TTITLE2=If I Die Sudden
TTITLE3=Troubled Land
TTITLE4=Young Without Lovers
TTITLE5=John Cockers
TTITLE6=Don't Need This Body
TTITLE7=A Ride Back Home
TTITLE8=Without A Shot
TTITLE9=Jena
TTITLE10=Mean
TTITLE11=County Fair
TTITLE12=For The Children
TTITLE13=A Brand New Song
EXTD=
EXTT0=
EXTT1=
EXTT2=
EXTT3=
EXTT4=
EXTT5=
EXTT6=
EXTT7=
EXTT8=
EXTT9=
EXTT10=
EXTT11=
EXTT12=
EXTT13=
PLAYORDER=
